<?xml version="1.0" encoding="utf-8"?>
<!-- Generator: Adobe Illustrator 25.2.3, SVG Export Plug-In . SVG Version: 6.00 Build 0)  -->
<svg version="1.1" id="Layer_1" xmlns="http://www.w3.org/2000/svg" xmlns:xlink="http://www.w3.org/1999/xlink" x="0px" y="0px"
	 viewBox="0 0 395.3 395.3" style="enable-background:new 0 0 395.3 395.3;" xml:space="preserve">
<style type="text/css">
	.st0{fill:#1EAE68;}
</style>
<path class="st0" d="M-396,223.1c0-45.4,36.8-82.2,82.2-82.2s82.2,36.8,82.2,82.2s-36.8,82.2-82.2,82.2S-396,268.5-396,223.1z
	 M-339.8,207.7l15.1,15.1l-15.1,15.4c-3,3-3,7.9,0,10.6c3,3.3,7.9,3.3,10.6,0l15.1-14.8l15.4,14.8c3,3.3,7.9,3.3,10.6,0
	c3.3-2.7,3.3-7.6,0-10.6l-14.8-15.4l14.8-15.1c3.3-2.7,3.3-7.6,0-10.6c-2.7-3-7.6-3-10.6,0l-15.4,15.1l-15.1-15.1
	c-2.7-3-7.6-3-10.6,0C-342.8,200.1-342.8,205-339.8,207.7L-339.8,207.7z"/>
<path class="st0" d="M47.4,213.2v139.3c0,18.7,15.2,33.9,33.9,33.9h0c18.7,0,33.9-15.2,33.9-33.9V213.2c0-18.7-15.2-33.9-33.9-33.9
	h0C62.5,179.3,47.4,194.5,47.4,213.2z"/>
<path class="st0" d="M167.1,125.2v227.3c0,18.7,15.2,33.9,33.9,33.9h0c18.7,0,33.9-15.2,33.9-33.9V125.2c0-18.7-15.2-33.9-33.9-33.9
	h0C182.3,91.3,167.1,106.5,167.1,125.2z"/>
<path class="st0" d="M286.9,45.2v307.3c0,18.7,15.2,33.9,33.9,33.9h0c18.7,0,33.9-15.2,33.9-33.9V45.2c0-18.7-15.2-33.9-33.9-33.9h0
	C302,11.3,286.9,26.5,286.9,45.2z"/>
</svg>
