<?xml version="1.0" encoding="utf-8"?>
<!-- Generator: Adobe Illustrator 25.2.3, SVG Export Plug-In . SVG Version: 6.00 Build 0)  -->
<svg version="1.1" id="Layer_1" xmlns="http://www.w3.org/2000/svg" xmlns:xlink="http://www.w3.org/1999/xlink" x="0px" y="0px"
	 viewBox="0 0 24 29" style="enable-background:new 0 0 24 29;" xml:space="preserve">
<style type="text/css">
	.st0{fill:#F9F9F9;}
	.st1{fill:#A80000;}
	.st2{font-family:'PressStart2P-Regular';}
	.st3{font-size:11.9941px;}
</style>
<image style="overflow:visible;" width="120" height="120" xlink:href="D:\MAMP\htdocs\pokebrowser\pokebrowser\src\assets\img\pokeball.png"  transform="matrix(0.3435 0 0 0.3435 -61 23)">
</image>
<image style="overflow:visible;" width="48" height="48" xlink:href="D:\MAMP\htdocs\pokebrowser\pokebrowser\src\assets\img\player-male\pm-down-1.png"  transform="matrix(1 0 0 1 50 42)">
</image>
<path class="st0" d="M-66-1H-84c-0.6,0-1-0.5-1-1V-20c0-0.6,0.5-1,1-1H-66c0.6,0,1,0.5,1,1V-2C-65-1.5-65.5-1-66-1z"/>
<path class="st0" d="M21.3,1H2.7C1.8,1,1,1.9,1,3v18.1c0,0.6,0.2,1.2,0.4,1.7l2.8,5.1C5,29.3,7,29,7.4,27.4l1.1-4.3
	C8.6,22.4,9.1,22,9.8,22h11.5h0c1,0,1.7-0.9,1.7-2v0V3C23,1.9,22.2,1,21.3,1z"/>
<text transform="matrix(1 0 0 1 7.0059 18.4141)" class="st1 st2 st3">!</text>
</svg>
