<?xml version="1.0" encoding="utf-8"?>
<!-- Generator: Adobe Illustrator 25.2.3, SVG Export Plug-In . SVG Version: 6.00 Build 0)  -->
<svg version="1.1" id="Layer_1" xmlns="http://www.w3.org/2000/svg" xmlns:xlink="http://www.w3.org/1999/xlink" x="0px" y="0px"
	 viewBox="0 0 324.4 324.4" style="enable-background:new 0 0 324.4 324.4;" xml:space="preserve">
<style type="text/css">
	.st0{fill:#FFFFFF;}
</style>
<path class="st0" d="M312.8,267.6c12.5,12.5,12.5,32.8,0,45.2c-6.2,6.2-14.4,9.4-22.6,9.4s-16.4-3.1-22.6-9.4L162.2,207.5
	L56.8,312.8c-6.2,6.3-14.4,9.4-22.6,9.4s-16.4-3.1-22.6-9.4c-12.5-12.5-12.5-32.8,0-45.2L117,162.2L11.6,56.8
	c-12.5-12.5-12.5-32.8,0-45.2s32.8-12.5,45.2,0L162.2,117L267.6,11.6c12.5-12.5,32.8-12.5,45.2,0s12.5,32.7,0,45.2L207.4,162.3
	L312.8,267.6z"/>
</svg>
